/* XPM */
static char *d5de82e662944df4d8a3b84ca6940430y1C1wOQdfqowWsUT[] = {
/* columns rows colors chars-per-pixel */
"60 60 186 2 ",
"   c #292927",
".  c #2D2D2C",
"X  c #2E302D",
"o  c #31322F",
"O  c #2F2E31",
"+  c #2E3131",
"@  c #333432",
"#  c #383634",
"$  c #373935",
"%  c #3A3B36",
"&  c #373A38",
"*  c #3B3C39",
"=  c #403F3B",
"-  c #3F4037",
";  c #3E403C",
":  c #42433D",
">  c #47493E",
",  c #4B4A3F",
"<  c #356F4C",
"1  c #3D7553",
"2  c #3E7954",
"3  c #434441",
"4  c #494642",
"5  c #464842",
"6  c #4B4B44",
"7  c #4B4B48",
"8  c #504E46",
"9  c #514E49",
"0  c #4F5046",
"q  c #4F514A",
"w  c #525246",
"e  c #54544B",
"r  c #59564D",
"t  c #56584D",
"y  c #5B5A4D",
"u  c #565651",
"i  c #595750",
"p  c #575A52",
"a  c #5C5C52",
"s  c #625F4F",
"d  c #615E54",
"f  c #625F5A",
"g  c #5E604E",
"h  c #5F6155",
"j  c #497555",
"k  c #447B56",
"l  c #4B7A57",
"z  c #4D7759",
"x  c #477D59",
"c  c #4C7B5A",
"v  c #537D5C",
"b  c #5E7A5C",
"n  c #63604F",
"m  c #636255",
"M  c #686657",
"N  c #666857",
"B  c #696956",
"V  c #656459",
"C  c #6A665A",
"Z  c #67695B",
"A  c #6C6B5D",
"S  c #716E5D",
"D  c #73715E",
"F  c #78735F",
"G  c #676B61",
"H  c #6D6D61",
"J  c #716E62",
"K  c #6F7162",
"L  c #667F62",
"P  c #757363",
"I  c #7A7564",
"U  c #767965",
"Y  c #7B7A66",
"T  c #76756A",
"R  c #7A7669",
"E  c #777A69",
"W  c #7D7B6A",
"Q  c #7E7E70",
"!  c #837E64",
"~  c #817E6D",
"^  c #827F70",
"/  c #52835E",
"(  c #59815F",
")  c #548161",
"_  c #5D8463",
"`  c #698568",
"'  c #6D8D6D",
"]  c #7F806B",
"[  c #718A6B",
"{  c #7E8C6F",
"}  c #72906F",
"|  c #7E8070",
" . c #7D8D73",
".. c #7D9275",
"X. c #7E977C",
"o. c #84826D",
"O. c #8B846E",
"+. c #878B6F",
"@. c #8C886E",
"#. c #918A6E",
"$. c #858372",
"%. c #8A8572",
"&. c #848C73",
"*. c #8C8A74",
"=. c #8D8C79",
"-. c #938C75",
";. c #938E7A",
":. c #988F7B",
">. c #839375",
",. c #8C9476",
"<. c #839877",
"1. c #8A9479",
"2. c #8C9A7C",
"3. c #959176",
"4. c #999276",
"5. c #94927B",
"6. c #9D957D",
"7. c #9D967D",
"8. c #9D957E",
"9. c #9E967E",
"0. c #9B947C",
"q. c #939A7B",
"w. c #9D987B",
"e. c #9E987A",
"r. c #9F987D",
"t. c #9F9A7D",
"y. c #9F987E",
"u. c #9D987C",
"i. c #9E997D",
"p. c #A2977E",
"a. c #A0987F",
"s. c #A3997E",
"d. c #A09B7F",
"f. c #A19C7E",
"g. c #A19A7F",
"h. c #969481",
"j. c #9B9580",
"k. c #9D9480",
"l. c #9D9781",
"z. c #9E9680",
"x. c #9D9684",
"c. c #9C9681",
"v. c #959A82",
"b. c #9F9883",
"n. c #9E9A82",
"m. c #A09782",
"M. c #A19781",
"N. c #A09980",
"B. c #A39B82",
"V. c #A19A82",
"C. c #A19C81",
"Z. c #A39C82",
"A. c #A39E81",
"S. c #A59D82",
"D. c #A49F82",
"F. c #A69F83",
"G. c #A29985",
"H. c #A39D84",
"J. c #A59F84",
"K. c #A29C83",
"L. c #A89F86",
"P. c #A49E88",
"I. c #A99F89",
"U. c #94A184",
"Y. c #9EA385",
"T. c #9FA188",
"R. c #A6A083",
"E. c #A7A284",
"W. c #A5A185",
"Q. c #ABA187",
"!. c #AAA387",
"~. c #A9A386",
"^. c #A5A289",
"/. c #ABA188",
"(. c #ADA38A",
"). c #ABA58B",
"_. c #AEA98C",
"`. c #B0A08E",
"'. c #B1AB8E",
"]. c #ADA791",
"[. c #AEA991",
"{. c #B2AC92",
"}. c #B9AF96",
"|. c #B6B193",
" X c #B9B295",
".X c #BAB39A",
/* pixels */
"B.B.4.p.a.A.B.B.B.B.w.e.p.a.8.8.B.u.8.e.0.0.:.-.8.:.:.:.:.0.-.-.0.7.5.4.u.u.u.u.a.u.w.u.a.p.a.u.B.B.z.-.-.;.k.k.:.:.:.-.",
"z.8.s.Q.Q.Q.(.Q.F.F.F.a.B.J.B.B.A.B.8.e.8.p.e.:.0.p.p.p.p.8.0.a.J.H.B.u.A.A.A.F.J.A.f.f.B.F.F.F.F.R.J.n.M.M.G.G.M.M.8.-.",
"-.0.;.%.%.I %.o.;.%.;.5.0.k.x.B.M.4.-.;.:.8.0.0.-.4.4.6.-.-.0.0.e.4.4.e.4.w.w.p.8.p.0.8.8.8.z.7.j.j.*.%.~ ^ I ~ ~ %.M.-.",
"-.-.m 6 r d y 6 a C a J I I I J I F S S S F S A S S S C S J J S S F I F P I P F P P P P P P J P J e C V , w y r 4 i m.p.",
"0.#.y s M d w M M a 4 a P 6 # # # > : : * : ; : = * * * = % = = * : * - & : : * = * > # # $ > U a 3 a C d d d w d r ^ M.",
"O.-.f s a M s y Z a u m a H : $ & : a P m A M a F T y H F P A I H a R m P P P P ^ B : $ @ : A y h e e H s s m s d y O.G.",
"4.%.w S S S ~ C G e $ t 5 X . X X * = : 4 5 > 3 0 0 > 4 6 4 > w 6 > 6 > w 6 4 0 t 6 = . o X X > u & q f F S C ~ H f R B.",
"B.J 6 @.m t M y e a G 4 N t y y y f y y a a p t e e y y t y y t e a r p y y p a t r d r y y y A 5 A a r *.f w B d 9 C k.",
"p.B.M o.~ M t # e H J W P R P D P P P P P P I I P Y P H W R R I I B I P P ~ U I J I P U P I E E W P M d %.W A e @ a B.;.",
"-.8.S B ~ *.o.B C e 0 /.;.V I P m G p P Z C C Z M ~ W M V Z C A A K C | A m W W P A U P W i Z v.'.r e V P $.*.~ M U 0.0.",
"B.m.M 6 y B *.A e Z Z 5.B.e C H a M p q G a a m A a y Z e Z m V N V A P V w P V A m G H A e g ] z.H V u 4 a A *.M y 8.8.",
"B.m.m B w 4 O.P 3 P -._.J.P Z H A %.W J t h V m y M H t a q e t a t W N a I a a K A H A H P A Y [.n.H m D 0 6 o.H > 8.n.",
"a.0.9 Y F B %.m * a P _./.'.{.}.{.).).'.5.A C A A A V T W Y Y o.P m A H K m J P..X{.{.'.'.|.|.'.{.W i r $.I B o.r = ;.B.",
"u.-.8 a m D y & q %.I ^.^.^.I.^.R.R.R.E.z.a 6 @ . . V Z 7 4 > e G V X @ o 6 h J./.~.).~.~.~.~.~.).W -.r d m S e & 6 O.J.",
"4.7.a e t u @ e P /.n.^.^.^.].].).E.E.~.5.o.:.i @ P a & ; 3 3 ; * a P @ a 5.$.z._.)._._._.~._._.^.P.R.T 0 y e $ e r :.8.",
"w.n.S y g $ s m 5 M {.).(._._._.E.).E.~./.R.~.A G e * 3 3 : ; : 4 & p H U ).).^.).).)._._._.~.~.^.{.S 7 V y @ y y C 0.z.",
"a.-.d P d G V C a n._.~.~._._._.E.E.~.~.).E.A.^ e $ : * & * * * & ; & t $.R.).).)._._._._.~._.).)._.x.m A d M d J s %.P.",
"f.O.y e V e C a 6 h._.E.~.~._._.).E.E.W.R.~.7.p @ * * & * * * * & $ ; @ h H.).).).)./.'._._.~._.^.{.x.9 r A r f 9 y ~ I.",
"4.R.V : C m d W H m 7._.~._._.~.~.~.~.E.R.R.~ * & & & * * & * $ & ; * * 3 &.(.)._.^.^.[._.~.~.)._.B.C C Q i d C = d B.B.",
"e.a.a a T M r , P o.R._.~._._.~.R.R.R.Y.R.5.a $ & & * & * * & * & * * * & V B.).)./._.].)._.).~.).R.~ I 6 9 V P d s 8.B.",
"e.8.Z 6 6 A A %.R.[.).).~._._.E.E.E.W.W.~.&.5 * * & & * * * $ * * * & - * 6 =._._.^.].]._.).).).)._.|.~.%.A A 4 6 d p.M.",
"e.B.m . 4 $.Z x.{.I.)._._.~.~.~.).E.R.E.^.G * ; & & * * * * & & & * & & ; * K [.'.].].[._.).).~.).).R._.x.m W 7 . s M.M.",
"4.8.A t a *.P T [./.).]._._.).).R.E.W.R.h.e * * * & & - & & & & & * * & ; ; e n.'._.[.)._._./.~._._.).[.P J ^ a r A 8.M.",
"e.0.t r a ~ '.%.].].^.).).~.~.E.R.~.W.R.$.: 3 * * * * & * * * * * * * ; * : 3 h._._.].].]._._.[.{.{.]._.%.].^ y y w -.M.",
"e.M.C G a ^ {.[.G.I.^._.(./.E.).~.).R.).T ; 5 ; : ; ; ; ; ; 3 ; ; 3 ; 3 ; ; * Q [.<.q.<.2.1.<.^.q.1.q.1.2.T.~ e M V 0.M.",
"4.8.P T 9 ^ {.B.~ %._.'.|.{.[.).).)._.*.7 * ; ; : ; ; 3 3 3 3 ; 3 ; ; ; & & & ; ] ^.~.W.W.H.J.^.^.^.^.Y.Y._.~ 7 P D 5.G.",
"t.A.e & $ &.{.).5.k.{.J.H M =.[.Q.~.~.: $ * & ; : ; 3 ; 3 ; 3 ; 3 ; ; 3 ; @ & ; + 1. X|.|.|.}.}.|.}.{.}.{._.^ # $ 6 0.B.",
"-.u.V o = $.[.).[.{.H.9 : 3 3 $.'.~._.e $ & * ; 3 3 3 3 3 3 3 3 ; 3 3 3 ; + & & $ x.=.W ] W ^ Q W $.%.^ %.{.^ * @ V x.M.",
"4.s.d o * $.{._.R.{.Z 4 p a 7 e E.).|.o.& & @ ; 3 3 3 3 3 3 3 3 3 3 ; 3 ; & * $ I |.R.A.n.R.5...1.G.n.B.I.[.^ & o m z.8.",
"0.s.d @ = ^ _.)._./.e e ^.}.J ; =.'._.&.3 * * * ; ; 3 ; 3 3 ; ; ; ; ; * & & * 3 =._.[.R._.2.x _ ) >.I.x.^.{.^ * @ V x.B.",
"e.J.V @ * $.'._.{.7.* o.G : v.: P '.).W 3 7 3 3 & & & ; ; ; ; & $ $ $ ; 6 q 5 : $._.).A.n.v / k ` v n.(.^.`.^ # . m k.8.",
"4.z.m @ * $._.).{.:.& O.G a 5.6 B {._.I 3 7 q h p p q 5 3 ; ; q h N D N m h 3 : Y ).R.a...j 1 v 1 j  .].B.I.^ * @ f 0.:.",
"7.B.d o * $.[.^.'.5.5 G ;.H.E 7 U '._.Y > 7 q N A D Z Z ] 5.,.+.Z V N S h 0 4 ; U _.R.n.} z 2 < k x L ).).).^ * @ M M.e.",
"8.n.m @ ; $.}.).{.R.7 e ^ 5.u 7 %.'._.Y ; 7 7 N y K t t Z F ] E K Z Y t Z t 5 ; U '.E.p.' v U.` U./ b /.)._.~ * @ f 8.p.",
"4.p.d o * %.{.]._.|.P 7 a t e i ~.)._.R 3 7 6 H T 5.U ] ] R o.K o.P ,.] h 6 6 : Y _.f.a.' < X.v.[ 1 [ (.^.[.^ * o m w.s.",
"4.a.d @ & $.{.]._.{.].a ; 5 5 ;.|.).'.W 3 7 5 a ] q.3.%.U *.t.U 3.,.*.Y h 3 6 ; ~ _.R.s...z x c 2 v { {.^.].^ & o m 8.4.",
"n.n.m o = ^ [.{.[.[.|.].T P 5.|.)._._.$.3 7 6 p W &.,.5.] @.A.U 5.q.o.&.y 5 5 4 &.'.R.a.W.x x x 2 v n.R.J._.~ * o m B.M.",
"0.u.n @ * %.}.{.|.|.[.|..X X|.'._.).|.=.7 5 6 7 $.o.W %.,.w.t.,.o.o.o.3.4 6 5 3 ;._.R.H._...k ) x  .^.7.^.{.~ * @ m m.B.",
"8.a.n @ * $.[.^.T.^.T.T.^.).Y.R.W.Y.W.=.6 4 7 3 m ~.q.7.t.q.7.4.t.q.R.W - q 3 q 5._.).^.B.Q.,.&.v.P.a.p.].[.~ $ o m n.8.",
"e.8.m @ * $.U.1.U.U.2.U.2.W...U.2.2.q.j.9 > 7 5 m W.n.v.! W.n.+.@.i.Y.~ : 0 : t n.'.~.H.I.^.(.`./.^.H.I.].[.~ * o d z.0.",
"p.s.s @ * ~ _.].[.[._.|.|._.{.{._.).'.^.a 3 7 3 y Y.x.q.n o.v.g o.q.Y.A : 7 * V )._._.~._.).J.)./._._.{.].[.~ * @ d n.4.",
"0.S.s @ * ^ _./._._.[._._.'.'._._._.)./.H : 6 6 6 5.n.A - % : * y q.7.a 4 6 3 J ~.~.).).).n./.).x.'._.).]._.~ # o N H.7.",
"4.s.s # = $._._.[.h.$.h.;.&.5.n.u.R._.{.$.: 4 7 : W >.o . X X +   U o.; 6 5 4 %.'.).).).R.%.n.5.~ ].I.]._.].^ * @ m B.4.",
"8.B.f @ * $._.(.[.7.T 5.$.$.W $.I A.A.P 1.9 3 5 $ N S - h 0 , y > y P & 3 3 e =.U R._._.+.o.R.~ ~ B.].].(._.^ & O m u.0.",
"p.B.m @ * ^ '.^.[.^.h.5.^._.z.j.-.n.{.P D Z 3 ; : e , 0 U.] ] 2.6 y B ; 3 ; G G W _.)./.~ R.).*.].{.B.;.0._.~ * @ m A.z.",
"B.B.d X & %.'.I.].).I.&.h.5.h.7.[.[.|.5.m G ; ; 3 w : ; Z - - h % , w : ; 5 J G h.|.).B.@.5.%.7.h.:.^.^ %.}.^ $ . m n.0.",
"n.A.s = > h P ^./.).R.)._.E._._._.^.%.I V A t $ > w 5 @ & + + $ @ : w > * a H V P *.)._.]._.[.{.[.[.].I.k.x.I * 4 A 8.0.",
"H.7.I -.W Z A 7._.R.)._.).~.)._.'.5.y A a m U * : t , $ $ + - $ o 0 0 ; 3 T a m Z a -.I.F._._.].].'._.^.I $.~ A P m a.:.",
"J.n.C m P I J 8._.~.R.).~.)._.^.(.{.n.a H G a h $ t w - X @ + + - y 0 $ V p G M a R.*.H %.).^._.(.].'.^.P a P P S h u.4.",
"F.u.B t H W A %.H.B._._._._.[.[.'.(.h.9 a H e P 6 0 e w : & - - e t : 6 H y A t e n.^.7.).[.{.{.].{.x.x.P r M W P m 7.4.",
"R.4.P o.$.P M W $.~ n.z.u.n.n.n.H.S y d M J a a A 6 w 0 y g g , w w 5 H d y J N a r S ^.B.B.G.x.x.k.P =.I ~ o.W A B 4.e.",
"R.A.M P W W ;.A T %.o.~ W R I P P P J T P H C J A A S S S S S S D D S P S A H P W J R I W ~ ~ %.%.%.~ W m A P U %.D 3.a.",
"R.a.J A W e d A E e e r e t e a t w t e u y t e 0 e e e w y e t e w p 6 9 t w e 7 i 7 t 9 p e e e 6 y $.Z Z R t a m u.F.",
"J.s.m W A H d M | e %.*.A P.e *.G ; =.7.a o.A J y I w o.I ,.N R.y 6 ;.o.*.$.R P e %.$ 5.d ] =.P 5.6 h $.4 U K m d d n.F.",
"J.A.B 9 6 W ^ V C u W %.6 ~ M W Z 5 m o.m R M K m P m P J $.w U A 6 @.D R Y A U d Y e Y P U *.y ] Z e G y t : P I S n.B.",
"I.J.d   4 : u G d V = : 3 : : : 4 6 : = > : : : : : : = : : : : : , : = : : : : > : 4 * : ; : > * 5 m A I 6 6 $ . r ^.z.",
"I.x.I R P P =.^ C A W I I W R I I I W I I Y Y I I F U F F U U I I I W I Y I I I I Y I I F F W F Y I m A %.^ J I T P M.-.",
"z.I.0.7.7.%.-.~ %.m.A.J.A.F.F.B.n.A.F.a.f.a.f.a.a.w.u.w.w.t.f.f.f.A.A.B.a.f.p.f.f.w.p.3.#.4.4.f.w.a.4.o.@.%.;.z.8.e.B.-.",
"0.I.^.F.J._.).'.'.'._._.Q.J.(.F./.Q.J.J.(.Q.E.F.E.f.R.R.f.E.f.E.f.a.F.e.e.f.a.p.e.p.4.#.#.4.4.a.F.E.Q._.Q.~.)._.(.(.n.-.",
"%.-.-.O.-.e.8.8.e.8.M.B.8.0.0.:.;.8.0.;.4.4.0.#.3.4.w.4.4.w.p.w.w.0.8.4.#.-.-.-.#.-.-.@.@.! o.O.@.4.8.4.0.0.0.-.-.O.O.%."
};
