/* XPM */
static char *_320b6caf41847d2845f072b7956e75dobj9zT4VaQAyexJJ[] = {
/* columns rows colors chars-per-pixel */
"60 60 228 2 ",
"   c #030302",
".  c #0E0E0D",
"X  c #1D1A19",
"o  c #231E1B",
"O  c #28221E",
"+  c #382619",
"@  c #252424",
"#  c #2C2521",
"$  c #2E2924",
"%  c #2E2C28",
"&  c #372A23",
"*  c #322B24",
"=  c #3D3327",
"-  c #383734",
";  c #442A18",
":  c #5B331E",
">  c #6C3A1E",
",  c #412E22",
"<  c #43362A",
"1  c #523C2E",
"2  c #473C33",
"3  c #683B23",
"4  c #733D21",
"5  c #793F20",
"6  c #3E413F",
"7  c #55422D",
"8  c #4B4438",
"9  c #564839",
"0  c #784726",
"q  c #7C4424",
"w  c #704E33",
"e  c #774D31",
"r  c #1B2F71",
"t  c #1B2E7A",
"y  c #293970",
"u  c #24347D",
"i  c #2C3A7D",
"p  c #2D447E",
"a  c #38447C",
"s  c #464643",
"d  c #4D4C4E",
"f  c #5A5349",
"g  c #5B5B56",
"h  c #655545",
"j  c #64594D",
"k  c #695B4C",
"l  c #715D4D",
"z  c #665E55",
"x  c #6E614D",
"c  c #77634D",
"v  c #6A6158",
"b  c #776857",
"n  c #7C705E",
"m  c #484F67",
"M  c #4E536A",
"N  c #53576C",
"B  c #535A6D",
"V  c #434E76",
"C  c #4B5474",
"Z  c #49577A",
"A  c #545C72",
"S  c #515D7B",
"D  c #596377",
"F  c #56647C",
"G  c #6A6D73",
"H  c #777778",
"J  c #824B28",
"K  c #85522B",
"L  c #89532C",
"P  c #8C5933",
"I  c #8A5936",
"U  c #8D633C",
"Y  c #9A663B",
"T  c #A26A3A",
"R  c #876849",
"E  c #976B42",
"W  c #9C7248",
"Q  c #856C55",
"!  c #936F55",
"~  c #8A7457",
"^  c #84735D",
"/  c #8A745B",
"(  c #96785C",
")  c #937C5D",
"_  c #A06E41",
"`  c #A4754A",
"'  c #A67B54",
"]  c #A87C52",
"[  c #857663",
"{  c #8C7B64",
"}  c #8A7B68",
"|  c #937D64",
" . c #9A7E62",
".. c #937F6A",
"X. c #9F865E",
"o. c #AC8157",
"O. c #948165",
"+. c #9C8465",
"@. c #94826B",
"#. c #9C856A",
"$. c #9D886C",
"%. c #8B8375",
"&. c #988772",
"*. c #9D8D7C",
"=. c #9F917C",
"-. c #A28C6C",
";. c #A88B6B",
":. c #B08E6E",
">. c #AA926D",
",. c #B3946F",
"<. c #A38D73",
"1. c #A68E75",
"2. c #A59174",
"3. c #AB9474",
"4. c #AC9877",
"5. c #A69379",
"6. c #AB957A",
"7. c #AE997A",
"8. c #B19574",
"9. c #B49A74",
"0. c #B29679",
"q. c #B39B7D",
"w. c #BA9C79",
"e. c #B6A07E",
"r. c #BCA27C",
"t. c #C1A47D",
"y. c #1E2F81",
"u. c #253685",
"i. c #394985",
"p. c #394E86",
"a. c #4A5683",
"s. c #495584",
"d. c #5C6A83",
"f. c #576B8F",
"g. c #596889",
"h. c #556B93",
"j. c #63748C",
"k. c #68768A",
"l. c #69748C",
"z. c #677997",
"x. c #6A7A93",
"c. c #6D7FA3",
"v. c #76818C",
"b. c #78869D",
"n. c #6E83A4",
"m. c #758AA8",
"M. c #7D91AB",
"N. c #778DB2",
"B. c #7C94B7",
"V. c #7E9CC3",
"C. c #7FA0C3",
"Z. c #858689",
"A. c #968F8D",
"S. c #9C9587",
"D. c #888C96",
"F. c #969798",
"G. c #A99A86",
"H. c #B59E82",
"J. c #B69F85",
"K. c #A49F9C",
"L. c #B6A184",
"P. c #BAA284",
"I. c #B4A289",
"U. c #BAA489",
"Y. c #BDA98B",
"T. c #B0A899",
"R. c #848EA4",
"E. c #8A97A9",
"W. c #949CA9",
"Q. c #879BB5",
"!. c #829BBE",
"~. c #939FB2",
"^. c #98A0A9",
"/. c #9BA2AD",
"(. c #8DA2B7",
"). c #8CA3BE",
"_. c #9BA5B2",
"`. c #9FA9B5",
"'. c #93A6BB",
"]. c #99A6B8",
"[. c #95AABE",
"{. c #9BAABE",
"}. c #A4A6AA",
"|. c #A0A7B1",
" X c #A1AAB5",
".X c #A1ACBC",
"XX c #B1B4B8",
"oX c #C2A682",
"OX c #C4AA84",
"+X c #C9AC85",
"@X c #C5AC8A",
"#X c #CAAE8A",
"$X c #C7B089",
"%X c #CCB28D",
"&X c #D1B58F",
"*X c #CDB592",
"=X c #CAB598",
"-X c #D1B692",
";X c #D3BA95",
":X c #D1B79A",
">X c #D5BC99",
",X c #D8BF9C",
"<X c #CDB8A1",
"1X c #D7BFA1",
"2X c #D9C19C",
"3X c #DDC2A1",
"4X c #849EC4",
"5X c #85A2C3",
"6X c #82A1C5",
"7X c #86A1C5",
"8X c #87A0C6",
"9X c #88A1C7",
"0X c #8DA5C4",
"qX c #8FA8C7",
"wX c #81A1C8",
"eX c #89A2C9",
"rX c #8AA3C9",
"tX c #8BA5C9",
"yX c #8BA4CA",
"uX c #8CA5CB",
"iX c #8CA5CD",
"pX c #8EAAC9",
"aX c #90A7C7",
"sX c #94ABC4",
"dX c #9AAEC4",
"fX c #93ABCA",
"gX c #97B0C6",
"hX c #A1ABC2",
/* pixels */
"V.V.V.V.V.V.V.V.V.V.V.V.V.V.4XV.V.V.V.V.V.4XV.4XV.V.V.4XV.V.C.V.6XV.C.C.C.C.wXwX4XwXwXwX6XwXwX6XC.wX6X6XwXC.C.wXV.6X6XC.",
"V.V.V.V.V.V.V.V.V.V.4XV.V.4XN.c.N.V.V.4X4X4X4XV.V.C.4XV.C.C.C.C.wXC.wXwXwXwX6X6X6X6X6X6X6XC.6X6XwXwX6X6X6XyXwXwXyX6X6X6X",
"V.4XV.6X4X6XV.!.V.!.4X4XN.c.g.g.n.4XV.4X4X5X9X4XwX6X6X4X6X6XwXwX8X8X6X6XwXyXwX4X6X6X6X8X8X8X8X4XyX8X5X8X6XC.yXyXwX6X6XwX",
"!.B.4XB.!.5XB.!.4X!.!.!.z.S S d.c.N.N.N.!.8X8X4XwX6X5X5X6X8X4XrX4X4X8X8XwXwX4XrX9X9X4X6X4X8XtXyXeX6X9XyXqXeXyXyXrXrXpXrX",
"4X4X4X4X4X!.4X4X4X4X4XN.j.F d.j.j.z.z.N.4X4XrX4X4X4X4X4X8X4X4X4X4XrX4X4XyX9X4XyX4X9XrXrXrXrXyX9XeXyXyXeXyXtXtXyXpXrXyXyX",
"4X4X4X4X4X4X4X4X4X4X9XQ.c.j.d.d.d.F z.m.4X4X4X4XrX4XrX4X8XeX6XeXrX4XrXrXyX9XyX9XrXyXrXuXrXrXyXiXyXyXtXyXtXtXyXyXiXiXyXyX",
"4X4X4X0X4X4X4X4X4X0X4X!.z.j.D d.A D d.n.4X4X4XrX4XrXrXrXrX4XyXyXuXrXyXtX9XyXyXyXyXyXyXrXrXrXyX9X5XyXyXuXyXyXyXyXiXiXiXiX",
"9X9X4X4X0X4X4X9XrX4X4XN.F N B B C d.x.m.B.4XrX4X0XrX4XrXrXrXuXrXyXuXyXyXyXyXuXyXyXyXyXuXiXrXiXyXiXiXyXiXyXuXyXuXiXiXiXiX",
"4X4X4X9X4X9X4X4XrXrX9Xm.A m M N D j.n.n.N.).5X8XrXrX9XiXuXuXuX9XyXiXyXyXuXiXuXiXiXiXiXiXfXrXiXiXiXiXyXpXiXiXpXiXiXiXiXiX",
"9X).4X9X0X!.0X4XrX4XrX!.d.M M A D F d.j.n.B.!.0XrXuXtXyX9XuXuXuXuXiXtXuXiXiXiXiXiXiXiXiXiXiXrXiXuXyXuXuXiXiXiXpXiXiXiXpX",
"4X).).4X).9X9XrXrX4XrX!.l.N N A D D A F j.m.N.5XrXuX9X9X0XuX0X0X0XuXuXuXiXuXuXuXiXuXuXqXiXrXiXaXpXuXpXqXiXpXfXiXpXpXpXpX",
"4X4X).9X9X0X9X0X0X0X0X!.x.G D d.D B A A A j.M.).0XuXuXaXiXuX0X0XqXuXqXuX0XuXqXqXaXuXuXqXqXfXaXfXpXqXfXfXfXpXfXfXfXpXfXpX",
"sX0X0X0X0X0X0X0X0X0X0X9XR.d.D A M B D M M d.M.5X0X0XaX0XqXqX0XqX0X0X0X0XaXuXaXiXaXaXfXfXfXfXfXiXfXpXfXfXfXfXfXfXfXfXfXfX",
"0X0X0X0X9X0X0X0XaX9X9X0XQ.x.S M M B D B D j.m.).aXaX0XaX0XqX0XaXaXaXfXfXfXfXfXaXfXfXaXfXfXfXfXfXfXfXfXfXfXfXfXfXfXpXfXfX",
"0X0X9X0X0X0X0X0XaX9X!.!.Q.m.d.N M B A D F j.n.Q.0XaXaX0XaXaXaXfXfXfXaXfXfXfXfXfXfXfXfXfXfXfXfXfXfXfXfXfXfXfXfXfXfXfXfXfX",
"0X0X0X0X0X0XaXaXaX).~.0X!.R.l.N m m B F S s.g.n.0XaXaXfXsXaXsXaXaXsXaXaXfXaXfXfXfXfXfXfXfXfXfXfXfXfXfXfXfXfXfXfXfXfXfXfX",
"0X0X0XqX0XqXqXqXqX).).).Q.n.d.B m m m Z V a s.h.).qXqXfXaXsXqXaXpXsXsXsXaXsXsXpXsXsXfXsXfXsXfXfXfXfXfXgXfXfXfXgXgXfXfXfX",
").qX0X).).).qX).).qX).qXQ.x.F A B C C V V a i.h.Q.aXsXsXsXsXfXsXpXgXpXsXsXsXfXsXsXfXfXpXfXfXfXsXgXfXfXfXgXfXgXfXfXfXgXgX",
"sX).sXqXqX).qX0XsX).qX).Q.x.j.d.Z C C a a a u.h.B.qXsXaXsXpXsXfXsXpXgXgXfXfXsXpXpXsXsXfXfXfXfXfXfXgXfXfXfXgXfXgXgXgXgXgX",
").).).).qX[.).sXsX).).).M.x.v.F Z m C C a u.i.s.m.sXaXsXgXsXsXsXsXsXsXgXsXsXsXgXsXsXsXgXfXgXfXgXgXgXgXfXgXgXgXgXgXgXgXgX",
"[.'.qX[.sX).sX[.[.sX[.).m.v.k.j.B V S Z a i u.p h.).[.gXsXsXgX[.[.[.[.[.[.[.[.gX[.gXsXsXgXgXgXdXfXgXgXgXgXhXgXfXgXgXgXgX",
"sX[.[.[.[.[.[.[.[.[.[.(.E.b.j.j.S S d.g.i.i t u p.M.[.[.sX{.gX[.gX[.gX[.[.gX[.[.[.gXdXdXdXdXdXdXhXgXhXgXgXgXgXhXgXgXgXhX",
"sX[.[.[.[.[.[.[.sX[.[.[.(.M.n.d.S d.d.f.i.u.t t p M.[.[.[.{.[.[.[.dXdX[.dX[.[.dXdXdXdXdXdXgXgXdXgXgXgXgXhXgXfXhXgXhXgXhX",
"[.[.[.[.[.gX[.[.[.[.[.[.(.~.M.d.Z d.j.f.V i u t r h.Q.[.dXgX[.dX[.gX{.dX[.gX[.dXdXdXdXdXdXdXdXdXhXgXgXhXfXgXhXgXgXgXgXfX",
"[.[.[.[.[.[.[.[.[.{.[.[.[.'.Q.j.S d.l.g.a.i u u u p.n.0XsXgX[.[.dX[.{.dX{.gXdXdXdXdXdXdXdXdXdXdXgXgXhXgXgXgXhXgXdXdXdXgX",
"[.[.[.[.[.[.[.[.[.{.[.[.].'.E.m.l.l.x.l.a.u.i u.y.u.h.B.[.[.[.[.[.{.{.sX[.{.dXdXdXdXdXdXdXdXdXdXgXhXgXgXhXgXgXgXdXgXdXdX",
"[.[.[.[.[.[.[.{.hX{.].sX[.'.'.~.R.R.R.c.d.a i i u.u.p.z.(.[.{.[.{.[.{.{.dXdXdXdX{.{..XdXdX{.dXdXhXgXhXgXhXgXhXgXdXdXdXdX",
"[.[.[.(.].{.}.F.F.W. X.X].'.].W.R.R.R.b.g.s.i i u.y.u.h.(.{.{.{.[.gX.X`..X X`.{.{.dX{.hXdXdXdXdXhXhXgXhXgXhXhXhXhXhXhXhX",
"{.{.{.^.E.^.T.n } %.T.K.D.~.'.~.E.E.R.x.g.s.u.i y r r a.~.{.`.dX{.{.E.K.S.G.T.hX|.`.{.hXhXhXhXhXhXhX.XhXhXhXhXhXhXhXhXhX",
"].{..X`.}.}.%.b [ ..S...Z.~.].~.E.W./.R.l.l.g.V y r r y M.`..X{.dX{.%.G.&.4.U.T.F./.{.`. XhX.X.X.XdX.XhXhXhXhXhXhXhXhXhX",
"].].XX}.$.+.O.O. ... ...A.*.S.} S.A.H G G G G g N m m d G D.D.D.F.F.H %.[ =.G.%.H Z.D.D.Z.W.K.E._..X.X.XhXhXhXhX.X.XhXhX",
"]._. XG.U K K e L L L L L J P h l w + + ; ; ; ; ; ; ; ; & ; ; , , , , & = = , , = & = , < < 2 s g %.Z./..XXXhXhX X.X X X",
"_._.K.1. .] ] ' ] ' ' ` ` ` ' Q 7 R w e E Y Y T Y Y Y Y Y P Y Y P P L P L K K J J J e J K 0 0 R 8 ^ n k.`.`.`.`.`. X`.`.",
"_._.XXG.7.J.L.I.J.J.J.J.H.J.U...j 6.0.6.H.H.H.q.H.H.w.0.q.q.8.8.8.8.0.8.8.8.>.>.>.3.:.:.:.:.,.8.x O.=.v W. X`.`.`.`. X`.",
"W./.}.J.6...[ } ..| ..| | ..G.@.k H.L.P.J.L.P.J.U.J.J.J.H.H.H.1.<.1.2.4.L.7.5.5.6.H.H.J.H.H.P.I.z O.7.n H `.`.`. X X`.`.",
"_.|.F.6.-.& # # # # # # * # b ..k q.I.U.L.L.P.U.U.U.oXJ.5.3.@.2 < < < 8 / O.O.O.) } h 9 f h <.G.8 9 b n g W.`.`._._.`._.",
"~.|.A.6...* # o @ o o o o o l } k H.J.L.U.L.U.P.U.U.U.L.6.q.^ * # @ @ O c 4.q.5.[ v # # O O Q S.@ $ - f g G _._._.`._.|.",
"W.}.%.G...# # o o o o o o o l ..j H.J.I.L.P.J.U.U.U.U.P.P.J.b % * $ $ # c 7.U.H.[ l # # O * ^ 5.@ % 8 d g d E._./.]._._.",
"W./.%.H.&.* # o @ o o o @ o l } k H.H.I.L.L.H.J.U.U.U.I.L.H.^ & * $ $ $ b 4.Y.L.[ b # # # # ^ S.@ % 8 f f 6 k.}.W.}.|.}.",
"W.}.&.J.&.# o o o o o o o o x [ k q.L.L.J.P.H.J.U.U.P.P.P.H.3.{ ^ ^ Q ^ +.7.Y.H.{ b O # & * [ <.% % s g g f d T.<X<X<X<X",
"T.<XG.I.5.h 8 2 2 2 2 2 2 2 { ^ j G.J.I.P.J.H.G.J.J.J.P.P.H.H.q.q.L.H.7.-.2.H.5.[ / = = = < | S.@ % s g z k s ..>X:X>X:X",
":X<XY.J.J.H.G.6.5.2.6.3.3.6.H.n h 7.J.J.H.J.5.5.5.5.7.P.P.H.H.H.e.q.q.<.O.{ } O.{ 1.5.<.&.$.J.G.9 b { #.@.{ v f @X,X1X1X",
">X1XY.I.I.J.J.H.q.q.H.e.e.L.U.[ h H.J.J.J.J.6.<.6.5.3.P.H.q.H.H.q.L.4.{ ^ ^ [ @.O.2.I.P.J.P.oXJ.z @.L.q.q.$.{ j ..1X,X2X",
":X=XY.I.U.P.J.J.H.H.L.H.L.H.U.n k q.H.H.H.J.5.-.<.<.6.P.J.J.H.P.L.L.7.{ / @.$.=.} <.U.U.U.U.U.J.j { 0.q.H.6.6.5.} Y.2X2X",
";X=XL.3.0.8.0.:.8.:.0.:.8.9.q.j h -.-.^ { 3.-.^ #.0.6.0.q.0.0.q.q.q.0.2.+.+.<.<.{ <.J.J.H.oXP.G.f { 3.0.0.H.H.6.&.&.3X3X",
":X%X,.Y T T T Y Y Y Y W Y T ` 7 0 T Y w e Y U e I _ _ Y _ W W _ _ ` ` ` W R E E R ` ] ] ] o.o. .1 U ] ` ' ] ' ' ! l =X3X",
":X:XJ.L q J 5 5 5 4 q K 0 5 e 1 : J e 3 5 5 > 4 4 5 5 > 4 4 4 4 5 0 q q e 3 : 3 w 4 q J q q J I ; > q 0 q J q 0 0 w Y.2X",
"1X<X@X:. . .-.-.|  . . .(  ...h k -. .| |  .( O. . . .+. .(  . .) ( ( ( ! ^ ! / Q R !  .! (  .! 9 c ! ! ! ! ! R b l #X2X",
",X>X*XJ.<.6.4.0.O.$.2.3.4.#.$.&.#.J.H.J.J.H.q.-.~ O.>.4.-.4.9.4.3.-.#.e.-.2.5.6.O.O.4.4.4.4.4./ ^ $.X.) $.4.q.5.&.[ =X2X",
"-X-XOXq.-.<.-.2.| #.#.-.;.O.-.e.H.H.H.P.P.J.$.9 O * c ) $.4.8.;.+.O.@.e.-.$.5.6.~ O.4.4.9.q.5.O.4.~ = O x >.3.+...9 [ *X",
"@X*X..x Q ) -.-.+.-.| O.X.O.-.>.2.3.0.H.H.L.k + = O < O.$.-.#.~ Q R 3.L.$.$.-.2./ O.>.4.7.q.4.O.+.= O X + b 0.2.{ 9 h P.",
"%X*X^ h q.P.P.L.0.3.3.3.+.#.-.-.( +.3.e.P.L.x 1 w x 7 b 9.P.4.~ ~ ~ 4.r.X.c c c ) ;.-.-.>.4.>.[ x 8 8 8 8 R 3.-.^ @.3.q.",
";X*X#X$X-X%X#X&X+XoX@XOXw.e.9.9.:.8.0.oX+XOX-.) -.-./ O.w.+Xt.,.) +.OX$X>.-.-.) ;.>.-.>.4.9.2.5.G.n x +.$.r.r.$.O.-.>.P.",
"*X*X*X%X%X%X#X#X+X-X-X;X&X&X$X+X+X+XoX+X&X#XOX*X%XOXe.w.OX#X%X$Xt.OX&X%X&X%XOXr.P.OXOX%X$X@XOX@X=X7.-.Y.$X&X;Xr.r.r.%X;X",
";X*X*X%X#X#X*X%X+X+X*X>X;X;X$Xt.w.w.t.&X-X&X=X;X-X-XOXOX#X*X&X&X*X-X>X;X;X*X$X%X%X%X*X-X*X%X%X%XY.$XOX$X*X;X2X%X$X&X>X,X",
"@.O.{ { / / ) / 1.OX$X;X;X%Xt.9.w.w.t.#X&X&X&X#X%X=X@X@XoXoXt.+X%X-X>X*X;X%X+X%X&X*X-X*X%XOXt.OXY.Y.P.$X;X;X2X;X&X;X2X2X",
"    . . . . .   w r.OX-X&X&Xr.>.,.9.r.%X&X$Xt.t.2X$X$Xt.r.>.9.t.OX-X2X%X;X*X$X*X>X;X;X;X$Xr.9.t.$XY.$X2X2X2X2X;X%X;X2X>X",
"    - d d N @   f 9.t.#X+X&X9.X.,.,.r.%Xt.t.t.&X&X&X&Xt.9.r.r.r.$X2X2X;X2X>X*X>X>X;X2X;X$Xe.9.t.%X%X&X2X2X2X2X;X%X&X2X&X",
"    - 6 s s @   9 8.t.+X+Xt.9.X.9.e.r.$Xt.$Xt.+X%X%X$X$Xr.r.t.$X%X2X2X2X2X2X&X2X;X;X2X2X&Xr.r.$X%X2X2X&X2X>X&X2X#X&X>X%X",
"                9 ;.t.#Xt.t.w.>.t.t.$X%X&X%X+Xt.t.$X$X$X$X%X%X;X2X;X2X;X;X2X;X&X>X;X2X>X&XP.r.*X2X&X2X*X*X%X$X$Xt.+X#X+X"
};
