/* XPM */
static char *aed874f1cd3143b0831fd1c762f36feanpDya96YEbVVKN5r[] = {
/* columns rows colors chars-per-pixel */
"64 64 225 2 ",
"   c #020202",
".  c #040C06",
"X  c #060E08",
"o  c #0B0E0C",
"O  c #080707",
"+  c #100F0F",
"@  c #071109",
"#  c #0D140D",
"$  c #001D0C",
"%  c #0E1A0E",
"&  c #10170F",
"*  c #10190F",
"=  c #0A0F13",
"-  c #150E11",
";  c #0F1710",
":  c #0F1911",
">  c #0D171D",
",  c #121312",
"<  c #131C13",
"1  c #151C1B",
"2  c #191A17",
"3  c #251817",
"4  c #331919",
"5  c #0C2515",
"6  c #152216",
"7  c #182316",
"8  c #162418",
"9  c #192519",
"0  c #152B1B",
"q  c #1C2B1C",
"w  c #0A3519",
"e  c #0B3D1C",
"r  c #023614",
"t  c #1E301F",
"y  c #12351F",
"u  c #202F1E",
"i  c #27231B",
"p  c #21301F",
"a  c #30231A",
"s  c #0C1B28",
"d  c #171E26",
"f  c #231F24",
"g  c #1B2225",
"h  c #1E2D21",
"j  c #1D242B",
"k  c #1C272D",
"l  c #1E3221",
"z  c #163722",
"x  c #102435",
"c  c #1C2631",
"v  c #1D2B38",
"b  c #212E21",
"n  c #232B29",
"m  c #282A28",
"M  c #3A2626",
"N  c #233422",
"B  c #263925",
"V  c #293B26",
"C  c #25342B",
"Z  c #2B342C",
"A  c #263C29",
"S  c #2A3D29",
"D  c #293727",
"F  c #373829",
"G  c #222B34",
"H  c #242E39",
"J  c #2A3533",
"K  c #26313B",
"L  c #29333E",
"P  c #2A3734",
"I  c #333C34",
"U  c #383839",
"Y  c #421818",
"T  c #591516",
"R  c #6A181B",
"E  c #501F22",
"W  c #7A1F20",
"Q  c #562626",
"!  c #4D3A2C",
"~  c #473735",
"^  c #4E342C",
"/  c #6B2725",
"(  c #732121",
")  c #732B27",
"_  c #79372B",
"`  c #722F30",
"'  c #773533",
"]  c #6D3432",
"[  c #08441C",
"{  c #044729",
"}  c #005A26",
"|  c #0A4833",
" . c #0C5934",
".. c #14533B",
"X. c #2D422B",
"o. c #2D442A",
"O. c #31462E",
"+. c #324A2F",
"@. c #334431",
"#. c #344B31",
"$. c #3B423C",
"%. c #394B3A",
"&. c #3B5335",
"*. c #395639",
"=. c #275336",
"-. c #04642B",
";. c #15613B",
":. c #19743D",
">. c #077630",
",. c #4D412D",
"<. c #5E432D",
"1. c #594636",
"2. c #425C3D",
"3. c #6D4C35",
"4. c #1F3141",
"5. c #2B3641",
"6. c #2E3943",
"7. c #2D3C4A",
"8. c #243545",
"9. c #313D46",
"0. c #313E49",
"q. c #2A3F52",
"w. c #1B5542",
"e. c #3F4640",
"r. c #33414D",
"t. c #2A4156",
"y. c #364450",
"u. c #384653",
"i. c #3A4956",
"p. c #3E4D5B",
"a. c #364B5E",
"s. c #325A40",
"d. c #206042",
"f. c #307452",
"g. c #3D5060",
"h. c #374C60",
"j. c #424B43",
"k. c #474E49",
"l. c #484F4A",
"z. c #4C4B44",
"x. c #4B524D",
"c. c #485349",
"v. c #424F5F",
"b. c #4E5550",
"n. c #41515F",
"m. c #4F5A50",
"M. c #525B53",
"N. c #545A55",
"B. c #5C4D44",
"V. c #6A4943",
"C. c #784944",
"Z. c #665446",
"A. c #765E51",
"S. c #596459",
"D. c #46785A",
"F. c #4B6642",
"G. c #766354",
"H. c #435463",
"J. c #475969",
"K. c #5C6C61",
"L. c #477E65",
"P. c #626B63",
"I. c #676B66",
"U. c #6A736B",
"Y. c #747B74",
"T. c #787C79",
"R. c #6F7870",
"E. c #8C2F2F",
"W. c #80412E",
"Q. c #8C5D37",
"!. c #975142",
"~. c #87674A",
"^. c #9B6E4B",
"/. c #947257",
"(. c #8D6C52",
"). c #AB754C",
"_. c #AE7343",
"`. c #B67847",
"'. c #A97753",
"]. c #B47C53",
"[. c #A17268",
"{. c #3C835D",
"}. c #4A8566",
"|. c #52896E",
" X c #598974",
".X c #7C837C",
"XX c #62957B",
"oX c #BB885E",
"OX c #AC805B",
"+X c #BB8B66",
"@X c #AA8068",
"#X c #C68D5C",
"$X c #C18452",
"%X c #CB8850",
"&X c #E19557",
"*X c #C08F65",
"=X c #C89468",
"-X c #D49E72",
";X c #DE9C66",
":X c #DBA173",
">X c #D7A174",
",X c #DAA06F",
"<X c #EAAD7C",
"1X c #E3A879",
"2X c #7F8680",
"3X c #729988",
"4X c #7AA88D",
"5X c #868C86",
"6X c #8B928C",
"7X c #84978D",
"8X c #969C97",
"9X c #87AB9A",
"0X c #8DB39E",
"qX c #9BA19C",
"wX c #98B5A8",
"eX c #8FB4A0",
"rX c #ABAEAB",
"tX c #A4ABA5",
"yX c #A7B6AF",
"uX c #C2BEBF",
"iX c #A5C1B3",
"pX c #ADCBBB",
"aX c #B1C9BE",
"sX c #B8CEC3",
"dX c #B8D6C5",
/* pixels */
"< 8 8 g 9 6 5 8 9 7 1 6 8 6 6 9 7 7 9 6 7 8 7 8 8 8 8 8 9 9 9 8 9 9 8 8 9 8 8 8 7 1 9 9 7 1 1 1 2 < < < < < < < < , ; ; ; : # # ",
"8 | { { { ;.}.y 7 9 8 8 9 8 7 q 9 q b 9 9 9 9 9 9 9 9 9 9 9 9 9 9 9 9 9 9 9 9 9 9 9 9 9 9 7 9 6 6 6 6 < < < < < < < < ; , # # , ",
"5 g.eX9X}.} f.y @ $ > $ @ S.n # Z u % % 1 : : 6 9 9 9 9 9 9 q 8 9 9 9 q 9 9 q 9 9 9 9 9 9 9 9 6 6 2 < 6 6 < < 2 < : < < , % < # ",
"$  XsX9X0X|.XXe I.@Xe.e.S 5Xj.$.c.P.c.U.I S.R.j.8 h q q q 9 q q g 9 9 g h q 9 q u 9 b 9 9 9 9 7 7 8 6 1 < < 6 < < < < , < < , & ",
"$ |.iX3X0XsX{.D.uX2XR.L.qX.XrXe.m.rXR.8X6X6X.XI.: l q q q q q q q q q q 9 9 h q u 9 u 9 b 9 9 9 8 7 7 6 1 8 < < < < < < : ; , : ",
"$ |.sX9XiX0X} f.rXu.6X@X.X6X8Xc.K.rXc.5XU.R.K.9 q q h q h q q q h 9 h q h q u h b 9 9 u 9 9 u 9 9 8 8 8 2 8 8 < 2 < < ; < ; < < ",
"0 ;.{.{.-.:.>.e $.J $.I 9 k.8 e.j.m.C S M.S.S.x.9 b q t q q h l q h q h q h q h q u h q b 9 9 9 9 9 9 9 7 8 8 8 < < < < < ; ; < ",
"5 e r r [ [ [ [ r w w w z w 0 7 6 < q 8 D N %.@.t l b q b q 9 q q b h q b q b u b q u h q q u 9 9 9 9 8 7 8 2 < 1 < < < < < < ; ",
"< < < < < 8 < [ >.:.-.} {.|.0 8 @.@.0 l q N q q N q b u 9 9 m k 1 8 l l b u p q N q b q q u 9 q q 9 9 8 9 6 6 1 6 < < < < < : < ",
"< < 6 6 8 8 : =.pX9X9X} ;. .0 % P.S.6 p N h h N b N l g E / / (./.,.8 N u b N u b u N u 9 u 9 q 9 9 q 9 8 7 7 6 8 < 6 < < < < < ",
"6 < 6 6 2 7 < *.dX4XiXD.sXXX%..XtXS.6 C q b l h N N 9 Y / ( / :X<X<X1.8 N b N N N b N B D u u N N q 9 9 9 8 7 7 < 6 1 2 < < < < ",
"6 7 8 7 7 8 : *.dXD.aX0XyXwX7Xm.5XI.5 N B N N N N l 2 ] ` ` E.-X;XrX+X9 B N N N N N N D O.S u D D q g 9 9 9 7 7 6 6 8 < 6 < < < ",
"6 6 6 7 9 9 < =.sXwX9X9XyX4XK.T.6XS.0 B N N N C B l 4 ` ` ' !.<X;X<.^.F l N N N N N N b S @.D u C q q 8 9 9 8 9 8 2 7 < 6 1 2 6 ",
"7 6 6 7 9 9 9 [  .;.{ | w.| g h N A N N D B B B D z 3 / B.B.Q ].%X`.).D N N C B N D N B S V @.S N q q q q 9 q 8 9 8 7 8 6 6 6 < ",
"7 7 9 7 9 9 8 y e y l l z l z N N N B C N B V B V N Y V.M 4 ~ ).`.G.+X,.l A B B D B N N S N S @.B q q q 9 9 q 9 8 8 8 8 8 2 8 < ",
"6 7 7 9 8 8 q 9 9 g 9 q h q l N N B B B B S S B S i T C.z.^ ] `.oX-X>X,.l X.V V V V V V %.V b S C u u b u u q 8 q 8 7 8 8 8 8 < ",
"6 7 0 7 7 7 q 0 q t q q l l l N B B A S A S A B A A 3 T / / ( #XoX-X1X~ S S S S V V V O.@.S N N u N D V N V N 9 9 9 9 9 7 7 2 8 ",
"6 7 7 0 q q 7 q q q t q l l l N B B S S S S S B A A l V.( R 3.=X#X*X=XF S S O.S V V D V B B N N u u b b u q u q q u 9 9 9 7 6 2 ",
"6 8 8 7 7 7 q q q q q h N N N N N B B S S A A S S X.u G.' ( '.[.+X*X+XO.X.X.X.S S A V V B C p N N p p p u u q q u u 9 9 8 8 6 6 ",
"7 8 8 0 q 0 q q q t t N p N N N B B B A S X.S S X.X.N ~ ' ' !.[.[.-XOXB @.X.X.X.S S S S V N D D N N N N p p p p q 9 u 9 9 6 6 6 ",
"7 7 q q q q q q h N N q l N B B B B A X.@.X.A X.X.X.X.i R R W.*XoX1X3.X.@.O.X.S O.S S X.S V V B B N N N p p p p p q q q q 8 7 7 ",
"7 p q t p q q 0 N V N p N B X.X.S A A +.#.X.X.A X.O.X.a R _ `.,X1X~.z X.X.X.X.X.S O.O.S S S O.S S B N p N p p p p q q g 8 q 9 7 ",
"t p 7 q q q u q q N N V B B V X.X.X.A @.X.X.X.@.X.#.N - / %X_.).^.< O.#.O.X.S O.S O.S X.S S O.X.O.S D D N N p p p q 9 9 9 8 9 7 ",
"p p 7 7 7 q q q t q N N N N B V X.S A A A X.X.X.#.N 4 E : ! (.-X(.s H A X.O.O.O.O.O.S O.O.S #.O.O.V D N N N N p p q h 9 9 9 8 9 ",
"7 p 0 q q p p p p p p p B N B N B S S S A @.+.S q m M M = x x G x g r.i.L S O.X.X.X.X.X.X.X.%.o.O.X.o.V o.p N N p p q q q 9 9 8 ",
"7 7 q q 7 p p p p V p p p N N B B S A X.A X.X.g E ` ~ 3 d c c G Z.n 7.H.H.C X.@.X.X.X.X.X.X.@.X.X.o.S V V V N N p p q t 9 8 9 9 ",
"7 7 7 7 7 p u u p p t t p B N B B A A S A +.B M ( R ^ d H.G 2 ].'.~.q.u.u.r.X.+.X.X.X.X.S X.X.X.S V o.V N N N p p p q q q 9 9 9 ",
"7 7 7 7 7 q q q t t t B B N N V S A X.X.X.X.B Q E.E 4 m i.h.<.$X/.1.i.u.y.p.P #.+.#.#.+.X.S S X.S V N o.N V p p p p q q q 9 9 9 ",
"7 7 q 0 7 u q u t t p p p p N N V S o.X.o.+.N T Q M f v.9.9._.#X1X^.6.i.r.H.r.+.&.O.#.+.X.X.o.X.X.S V V o.p t t t t q q q q 9 q ",
"7 7 7 7 q 7 q q q q p p p N p V S V S X.o.+.B 3 f 5.5.v.v <.%X;X'.Z.p.H.J i.g.I F.#.#.O.X.X.X.X.S S X.p o.p p t p t q q q 9 q 9 ",
"5 7 7 7 7 q q 7 q q p p N p o.O.S o.S S S +.B v 0.J.5.5.8.! %XQ.s 4.g.p.G 6.H.i.,.*.&.+.o.o.X.X.X.S V p p p t q t t q t q q q 7 ",
"7 7 7 0 q 7 q u q u p p N V O.B B B V S X.#.S j 0.v.5.v.u.> 2 c G.+XG.7.k L r.g.J +.2.+.O.O.S o.o.V o.B p p t t t q q q q q q 8 ",
"7 7 7 7 7 q 7 p u u p p p p +.p p D S X.O.#.V n L G H.n.5.H s G.OX*X<XA.0 k k k p.A #.+.O.X.X.o.A V A B p p t t t y q q q 0 7 0 ",
"7 7 7 7 p 7 p 7 u p p p p p V o.S V +.O.O.&.S G g i.H.7.L J v Z.Q.#X:X<X3.x i.i.H.r.o.+.+.o.o.X.V B B B B t p t q p q q 0 7 7 7 ",
"7 7 7 p p 7 p p q u p p p p p F V V S O.O.#.S G G 6.5.K G H n.t.<.`._.&X3.s n.n.p.H o.2.#.#.&.o.o.B p o.p B p y q q 0 q q 0 7 7 ",
"7 7 7 7 7 p p 7 q q p p p V p p V p S O.O.@.D G 5.H 5.G K H.J.r.v U ~ B., c 5.J k t o.*.+.o.&.V t t o.t p p t q 0 q q q 0 7 7 7 ",
"7 7 7 7 7 7 7 q q q i p p p V p V V V S V o.V n 5.L H G n.n.H.r.t.q.7.h.g C N N A o.X.*.&.+.&.l t z B t t t t q t 0 q 0 7 5 7 7 ",
"7 7 7 7 q 7 q q q q q u p p D V p V S p V S X.p k g k 9.H.n.H.0.7.8.6.v.S #.#.+.o.o.X.#.+.o.+.t V o.B l t t t t q 0 7 q 7 7 7 5 ",
"7 7 7 7 u 7 q 7 q q q p p p p V V p p S V S S O.O.V n 0.H.n.H.L 4.q.L g.C =.O.X.X.X.o.*.o.o.+.o.o.X.t o.p t t q 0 7 7 7 0 7 7 5 ",
"* 7 7 7 7 7 i q 7 7 q q p p p p V V V V V B S S X.C H 0.H.H.H.H q.q.H J.C o.o.o.o.z o.o.X.X.X.A V B t t B y t q q 0 7 5 7 7 7 7 ",
"7 7 7 7 7 7 i 7 q q u 7 u p p V F p V p o.V V V O.b G G 0.n.n.L H 7.G K B o.X.X.X.A X.z A X.B l V o.p p t t q t 0 7 0 5 7 5 7 7 ",
"* 7 7 7 7 7 7 q 7 q u u p p p p p p V p p V V V O.O.D G G H L 9.L 7.y.G t A z V l X.o.V B A B l o.B p p q q q 7 7 0 7 7 7 7 7 5 ",
"7 7 7 7 7 q 7 p q p u u u 7 u p p p p V p p p F S O.m H L 5.H.v.G y.J.9.B A A V V A B N N N N N y t t 0 0 q q q 7 7 0 5 7 % % 7 ",
"* 7 7 7 7 7 7 7 7 i 9 9 u u u p p V V p V o.p p N V b H L 0.H.i.G r.H.P B V A V X.V B B N l l l t t t t 0 q 0 q q 7 7 7 7 7 5 7 ",
"3 * 7 7 7 7 7 7 9 9 u u q q q u p p p p p p B D N V q K K y.H.0.G r.v.n B B C V V l B N l l l q t t q 0 q q 0 0 0 8 7 5 7 7 7 % ",
"* * 7 7 7 7 7 7 9 9 9 9 9 q u u p N p p p B p p N N h K L u.J.9.H y.p.n B B D V A B N N l l l t t t q 0 0 0 7 7 7 8 7 7 5 % 5 7 ",
"* 7 * 7 7 7 7 7 9 9 9 9 9 u i 9 9 7 9 9 9 u p p N p h K L i.H.L K y.p.h N N B B B N N N N t t t t q 7 0 8 8 8 8 7 7 5 7 6 6 % 6 ",
"* * * 7 7 7 7 7 7 9 9 9 i 9 7 * < < * 2 * * 7 9 u u d L K n.n.K K i.i.9 B N N N N l N l N t q l q q q 9 0 8 8 7 7 5 7 7 % 7 * % ",
"* * 2 * 7 7 7 7 7 7 7 7 7 7 u 7 7 2 < 2 6 < < < 7 p 7 J 5.H.v.G K p.y.9 N N N N N N N l l t l q q q 9 q 8 8 6 6 8 6 5 < < 6 : : ",
"* * * 7 * 7 7 * 7 7 7 7 7 u 9 7 9 7 < < < 6 < < 7 7 d K 9.J.y.K K n.y.q l h q h q l q t q h q h 9 0 8 8 8 8 5 < : 6 6 8 < : : : ",
"& & * * < 2 < 7 2 7 7 7 7 9 9 * < & * < < < < 7 2 & n K 0.J.9.G 5.H.0.8 u q q N h q h q q q 9 9 9 0 0 7 6 6 5 6 8 8 : : < 5 : : ",
"& & * * * < < < 7 * 7 2 7 9 9 7 * < * 7 < < < < 6 , H K 0.J.5.G 5.n.i.8 h q u h q q q q q 9 0 9 9 8 8 7 8 6 1 6 : < 6 : < : : : ",
"& & # & & * < 2 6 7 < 6 7 7 7 9 7 * * * < * < < * < H H 0.J.H G K v.i.8 q q h q q q 9 9 0 8 8 8 8 8 6 6 6 6 6 : : < 6 : : : : : ",
"& & & & & < < * < * 6 2 2 6 7 7 9 7 9 9 9 2 < < * < 5.H 5.H.n G 5.n.u.7 h 9 0 8 q 9 9 9 8 8 8 8 8 7 6 < 8 : : 6 6 : : : : : : # ",
"+ & & & & , < < < < 7 < 6 * < 7 7 7 7 7 9 u 8 < & 1 L K 5.H.H H 5.H.J.n 8 9 9 9 9 9 9 0 8 8 8 8 6 6 5 6 5 1 < < : : : : : ; # : ",
"o & & & & & * < * < < < * 6 2 < 7 7 7 2 7 7 8 6 # d n d j L 9.K 5.5.d , ; 8 8 9 9 9 9 6 8 6 1 8 6 6 < < < < < : : : : ; % : ; # ",
"# # # & # & < # * * < < < < < < < 1 8 6 6 6 6 6 ; o     o + + d j   o , , , , ; 1 8 8 8 < 8 : 8 6 6 < < < < < : < : % # @ ; ; ; ",
"# # # # & # # , & * * < , < < < < < < 2 6 < < 8 <       = , O O O O + + , , - , ; 8 < 8 8 < 6 6 < < < < < : : : : < g 9 9 : @ # ",
"+ # # # # # , # & & < , : < & < < < < < < < < < < o ; , - , 1 < < 6 1 < < < 1 1 6 8 5 6 < 6 : : : < : 5 : : < ; : g e.M.I U 1 # ",
"o # # # # , # ; & & & & ; # < , : < < 1 < < < 6 < 2 2 8 2 1 6 < 6 < 6 8 1 6 2 8 6 < 2 1 1 < 8 1 8 < 1 < : < : < : # e.T.5XT.X ; ",
"# o # # # # # & # ; # , ; , : < : < , : < < < < < 1 : 6 < < < 8 < 8 < 1 6 < : # @ # : : @ # # @ @ # @ ; X X X @ X @ U i e.n . X ",
"o o # o # # o # # # # ; # ; ; # ; ; : < , ; ; < : < < < 1 < 6 : < < < < < : N x.k.x.@.$.b.c.x.x.e.N.l.C j.x.b.e.j.k.b.J J U x.m ",
"o o o # o # # o # # # ; ; ; # : ; ; ; : : : > < < : : : < < : 1 < : : < < : n b.x.b.e.b.N.$.x.x.b.N.l.J b.l.e.k.j.e.x.I U k.$.n ",
"o @ o @ # o # # # # # # # # ; # ; ; ; : ; ; ; ; ; : : < : : < < : < < < : < ; @ @ @ @ : X @ X X X . X @ X . . . . . . X X . . X "
};
