/* XPM */
static char *_9fa0e360f434dedfd62300d6eff9bd5cSf8QxyFxpbb8J6A[] = {
/* columns rows colors chars-per-pixel */
"60 60 223 2 ",
"   c #020202",
".  c #060907",
"X  c #0A0C0B",
"o  c #0E130E",
"O  c #11170E",
"+  c #0F1A11",
"@  c #131613",
"#  c #131D13",
"$  c #171D1B",
"%  c #181918",
"&  c #1B1C1C",
"*  c #221E15",
"=  c #162116",
"-  c #182217",
";  c #162418",
":  c #19261A",
">  c #1D2C1D",
",  c #0D3F1C",
"<  c #12371F",
"1  c #1F301F",
"2  c #25231C",
"3  c #212E1E",
"4  c #2A2C1E",
"5  c #2B3414",
"6  c #21301F",
"7  c #38361A",
"8  c #1B1F21",
"9  c #1D2423",
"0  c #1F2F20",
"q  c #1F3120",
"w  c #153C27",
"e  c #202F20",
"r  c #262A28",
"t  c #23292C",
"y  c #322E20",
"u  c #233422",
"i  c #293527",
"p  c #263925",
"a  c #293B26",
"s  c #273B28",
"d  c #2A3E29",
"f  c #363826",
"g  c #262D31",
"h  c #2A3135",
"j  c #2D353A",
"k  c #343839",
"l  c #473829",
"z  c #503F30",
"x  c #3B421B",
"c  c #0C492D",
"v  c #174427",
"b  c #105632",
"n  c #2D422B",
"m  c #2B442D",
"M  c #374425",
"N  c #31452D",
"B  c #32492F",
"V  c #264D3C",
"C  c #324631",
"Z  c #344B31",
"A  c #3C4835",
"S  c #3A5335",
"D  c #3B5538",
"F  c #3F593B",
"G  c #016226",
"H  c #166839",
"J  c #54490D",
"K  c #49481B",
"L  c #555418",
"P  c #635C0E",
"I  c #74670D",
"U  c #736C13",
"Y  c #49432B",
"T  c #59452A",
"R  c #4A5828",
"E  c #484936",
"W  c #415C3C",
"Q  c #675C28",
"!  c #694E39",
"~  c #605438",
"^  c #6A513D",
"/  c #73543D",
"(  c #79583E",
")  c #4E6321",
"_  c #52652A",
"`  c #586A29",
"'  c #5C732C",
"]  c #5F792A",
"[  c #6E6F2A",
"{  c #63782D",
"}  c #6C6738",
"|  c #776935",
" . c #333C42",
".. c #384047",
"X. c #3A444C",
"o. c #3D4750",
"O. c #3F4952",
"+. c #236945",
"@. c #397459",
"#. c #464849",
"$. c #594F44",
"%. c #455643",
"&. c #434D55",
"*. c #434E58",
"=. c #46525C",
"-. c #48545E",
";. c #5A5A5A",
":. c #6D5745",
">. c #745C47",
",. c #7A5A40",
"<. c #496344",
"1. c #4D715D",
"2. c #76624F",
"3. c #4C7264",
"4. c #676968",
"5. c #6E786E",
"6. c #787A79",
"7. c #84730A",
"8. c #947D08",
"9. c #825B3F",
"0. c #825B40",
"q. c #876547",
"w. c #8E7454",
"e. c #96795B",
"r. c #A97C53",
"t. c #8D7D6F",
"y. c #6F872D",
"u. c #348351",
"i. c #43885F",
"p. c #4C8868",
"a. c #588A73",
"s. c #73887B",
"d. c #A58B06",
"f. c #B0930E",
"g. c #BFA21B",
"h. c #8B952C",
"j. c #878735",
"k. c #978A37",
"l. c #AC962C",
"z. c #A6923E",
"x. c #8DB338",
"c. c #C7A505",
"v. c #DBB505",
"b. c #C8A815",
"n. c #D6B410",
"m. c #E4BC01",
"M. c #E3BF16",
"N. c #C7AA28",
"B. c #D6B728",
"V. c #C5AC34",
"C. c #CFB435",
"Z. c #D4B835",
"A. c #ECC201",
"S. c #EBC30A",
"D. c #F1C701",
"F. c #F3CA09",
"G. c #E3C01B",
"H. c #F5CF1B",
"J. c #DFC033",
"K. c #EAC82A",
"L. c #F6D228",
"P. c #E4C63C",
"I. c #E5C83C",
"U. c #F8D636",
"Y. c #B9924F",
"T. c #B8875B",
"R. c #9F856C",
"E. c #AD8866",
"W. c #B88E68",
"Q. c #B59577",
"!. c #D59E5E",
"~. c #CBB549",
"^. c #D4B944",
"/. c #CBAA50",
"(. c #C89262",
"). c #D19D68",
"_. c #C29C7A",
"`. c #D5A370",
"'. c #E5AA70",
"]. c #E5AC73",
"[. c #F4B375",
"{. c #F3B67B",
"}. c #DDC34B",
"|. c #DEC550",
" X c #E6C947",
".X c #EFD24E",
"XX c #FCDC46",
"oX c #E6CC52",
"OX c #EED253",
"+X c #F7DA56",
"@X c #FFE253",
"#X c #FFE35B",
"$X c #6D9C83",
"%X c #7BA490",
"&X c #8B8A89",
"*X c #8F928C",
"=X c #959696",
"-X c #B89E81",
";X c #89AB97",
":X c #8DACA0",
">X c #9FA3A1",
",X c #98B9A8",
"<X c #A4A7A4",
"1X c #A2BFB0",
"2X c #CBA786",
"3X c #D3AB86",
"4X c #D9B28D",
"5X c #D8B593",
"6X c #E4B486",
"7X c #F7BF88",
"8X c #E6BE96",
"9X c #E3BE9A",
"0X c #ABC7B7",
"qX c #EAC29B",
"wX c #F6C99D",
"eX c #EAC4A0",
"rX c #F4CDA5",
"tX c #FAD0A7",
"yX c #FBD5AE",
"uX c #FCD6B0",
"iX c #FFD9B2",
"pX c #BACCC6",
"aX c #D0D6D4",
/* pixels */
", G G G G G +.i.b : > i i > > 0 0 > 0 0 q 0 q 0 > > % y * * y 2 > 3 3 e > u 3 > u > e > : 3 : > : > : : : - - - ; # # # ",
", u.i.i.H G +.p.v > : A #.> > 1 > u q > > 0 u > : y l ( / ! ( T 2 : 3 e e 3 e e 0 3 3 e 0 0 3 : > : : : : : - - = $ ; $ ",
"v 0X;X1X;XH +.+.v > 6 s.4.> 1 1 0 u u 0 e u u # l 9.q.9./ ! 9.9.9.l 0 0 e e 3 e e e u > 0 : 3 > > > : > > : : ; ; ; # ; ",
"v 0X%X1X%Xa.,X,XV 5.s.<X5.1 1 1 e 0 u 0 u 0 u % z 0.( / ( ( ( ( q.! 3 0 u u u u u u e p p u 3 > r u 3 : : - > ; : - - # ",
"c 0X$X$X1X%X,XaX1.>Xk *X5.0 u q u u e u u u q i / :.! q.,.^ ^ ! ^ ! 4 u u u u u u u u a d N i e i i e > > : : ; : ; ; = ",
"c 0X:X:X1X0X;XpX3.<X;.>X5.0 u u u u u u u u 9 z ^ ! (.wX8X4X3X4X4X-Xz : u u i u u u u u i C C u u u e : > ; : : : - - ; ",
"w @.$X3.+.@.3.3.V C %.%.X.6 u p u u p p s i 0 z ^ ,.].rXuXyXuXuXuXuXw.2 p u p u i u u u a d f d u u > > > : > : : : : - ",
"w c c c w c c c w > > 1 p p p p s p s p s s 0 z ^ ,.'.eXyXyXyXyXyXuX2Xy p i p p u i u p i d s C d s 0 > > > 9 : : : : : ",
"> > < : > > q q q q q q u p p u p s s s s s u l ^ ,.'.wXyXuXyXyXyXuX5Xk p p i p u a i u s d u s A d 3 : 3 > > : : : : : ",
": > > > > > > q q q q s p p p p s d d s s s s y ! r.[.6X9X9XeXrXrXeX9XA p a d s a i a s C C p u d d e e 3 3 3 3 3 : : : ",
": > > > > 0 > q u u u s p p d s s s d s s s i E ~ r.].e.:.>.W.9X2.2.E.#.p d d d a a a N C C s r u u e u i a u u i 3 3 : ",
"> : > > > q q 1 q q q p p p n s s d s s s s p q.w.r.{.'.-X2X6X9XQ.-X4XE d d d d d p s d i d p u u e e u e u e u 3 3 3 : ",
"> > > 1 1 > u q q u q s p p d d s s d s d d i ~ e.r.{.[.rXrX7XeX5XiX5XC d N n d s s s i p u u u i u e 0 0 u > 3 > > > > ",
": > > > > 1 q q u u p u p p d d d d s d d d s d q.T.[.[.tXrX6X5X5XuX2XC n d N d d d d d a a u p u u u u u e u > 3 3 > 3 ",
"> > 1 1 q q u u u p p p p p s d n s d d d n N d f r.'.[.eX5X_._.5XuX-Xd N n N n d d d d d a p p p i u u u e 3 3 3 3 3 > ",
"> 1 1 u q q 1 u s s s p s p m m m m m j n d n N f q.).).6X2XQ.E.2XeXw.d n n d n N n d n d a i a p p u u u u u 3 u 3 3 > ",
"> 0 s u 6 6 u u d n n s p s n Z C n d d n N N m n Y r.).).qX2XQ.5XQ.E n m d d N n d d d a d n N d d a u p 6 u 6 6 6 6 1 ",
"> > u u p p p u d a n n m s n n m m N m m m n n M Y r.r.(.3X2X2XQ.E d C C m n n n N n N n d d B N N d p u p u u 6 6 6 1 ",
"> 1 1 > u p p u u p a n n s s n d n n n n s x U d.f.'.'.(.E.W.E.| N n N d N N N N N n d n a f B N N M p a u u 6 u 6 6 1 ",
"> u u 1 1 6 u u p p p a s n s m d n N d x I f.J.L.B.).7XrX8X4XW.c.l.N N C C N n N d N N n n n Z N N n a a a a u u u 6 6 ",
"6 u u 6 0 u u u u p p p n p n p d n m K c.A.v.c.f.J./.].uXuXuX4XI N.R n C C m n d d n n n n N Z N B N n a a a 6 u 6 u 6 ",
"u u u u 1 1 u u u p p p p n p n m n m M d.v.c.c.S.n.}.( e.2X2Xe.7 V.|.| N m C N d N d n n n d N f n a n n a a p u u u 6 ",
"6 u u 6 > u u u u p p p p p p n d m C C x d.v.L.@X.X Xk.@ 2 r % & /.#X|.Q m N N N m n N n d N N d n a d a a p p p p 6 6 ",
"> > 6 6 1 1 u u p u p a n s n n n n C C K v.S. X#X#X#X~.y 2 2 r 8 k.#X^.j.C Z B N C C B N d d n n n a a p p p p 6 6 u 6 ",
"> > > 3 6 6 6 p p u p a n a n n n n B n U D.H.C.OX#X#XoX{ y.x.x.5 | #XC.k.S D Z B Z Z B n n n n n d p p p a p p 6 6 6 6 ",
"> > > > 6 6 6 6 u u p a n a n n B B m n d.D.XX X}.#X#X+X[ y.x.y.) Q #XZ.k.Z D W S B Z B n n n n n n n n a p a 6 6 6 q u ",
"> > > 3 6 6 6 u u a n a a n a n n B B M v.F.@XoX}.#X#X#X` y.y.] { [ +XC.k.<.W <.<.Z Z B n n m n n n s a p p p 6 6 1 > 1 ",
"> > > 3 6 6 6 u 6 N a a n a n a n m B L m.H.#X|.g.XX#X+Xy.y._ ' ' y..XC.k.<.<.D W S S B N N M n n M a a p p p 6 1 1 1 1 ",
"> > > 3 6 6 u u d N i a a a d d n m B I A.L.#XZ.n.U.#X+Xh.] { _ ] h.K.Z.k.D <.W W W S B B B m m n n s n p 6 p 6 1 1 1 1 ",
"> 3 > 3 6 u a 6 d N i a a a d N N N m 7.D.L.#XC.K.#X#XOXj._ { _ ] y.B.Z.j.F D W W Z S Z m B M m n n p a p p 1 p 1 1 1 1 ",
"> > 3 3 6 6 6 6 a d 5 a a d B N C Z n d.D.G.oXN.U.#X#X|.y._ ] _ ] U J.b.| <.W D S B B B B m M m n 6 5 n m 6 m 1 1 1 > > ",
": 2 6 6 6 6 6 6 u d d a a d B n Z Z m d.A.n.N.f.U.#X#X~.` _ y.' ] I g.b.l.W D Z B M B Z Z B m m n n v m 6 n 6 1 1 1 > > ",
"> > 5 > 3 3 5 6 p 6 a a a a N n C Z N 8.A.K.Z.8.K.#X#Xk.5 ) ` ` ' P G.B.~.B Z Z m m B F F B Z S m p p p p p 5 w 1 1 1 > ",
"> > > > 3 3 1 1 6 6 6 a 6 M N n n N d 7.D.XXoXd.c.L.OXQ O ) ` { _ L P.Z.OXR Z Z m m m Z S n B Z m p p 1 m 6 n 6 1 1 1 : ",
": 2 > > > 3 6 6 p 6 6 6 a a d a a d s I D.XXOXb.c.M.P.l X 2 M f * J  XB.@X} B N m n n B S B Z S 5 p 1 n 1 6 6 6 1 1 1 : ",
"> : > > > 1 3 6 6 a a a p 6 a a a d s P D.U.+Xb.m.XX.XK X & & 8 % J P.B.@Xz.n m m m n B S B B B a 6 v 6 v 6 p 6 1 > < 1 ",
": > > > > 3 3 6 u u a 6 6 a a a a d s L A.H.+XN.S.U.+XT . # @ @ % J J.b.XX~.N n n m m Z S m m M v M n 6 p p q 1 1 > < ; ",
": : : > 2 > 3 3 u a 5 6 a 6 a a a a s L m.H.+XN.A.U.XXL . X % t g K K.N.U.oXM n m m m Z Z m m m m 6 n 6 p p 1 1 1 : > > ",
": : 5 > : > 3 3 5 p a a 5 a 6 a a p p K m.F.+XN.c.I..X} g g ..O.*.E B.V.G. XL m v 6 m m n m n 5 1 m m 6 1 1 q 1 1 : 1 > ",
"> : ; > 1 > > 3 u u a a d a 6 a p p p I F.F.^./.Y.b.I.} O.*.O.O.=.E b.l.N.Z.I i n n 5 n n 6 n v m 6 m 1 m q > > 1 : > : ",
"- > : : 3 3 6 6 u e i 4 p p 6 a i p u P m.b.).qX3Xq.~ #.*.*.o.O.-.o.~ e.`./.K p 6 n m m 6 1 m 1 p p p p 1 < > < > > > ; ",
"> > > 5 3 6 > > 3 3 6 u 6 6 6 p u p u 7.b.!.{.8XR.;.k *.-.O.X.-.-.=.*.$.3Xe.a s 6 n 6 m 6 m m 1 q q q q 6 6 > : > > > ; ",
"- > > > : > > 2 3 3 3 6 6 6 u u u u u J Y.'.'.9X*X6.X.=.-.O.X.-.=.o. .2.Q.k p s m m 6 6 q p 1 1 q q q q 1 > > > < : ; ; ",
"2 - 2 : : > > > 3 3 3 u 6 6 i 6 u u u 6 ! r.(.8Xs.6.O.-.-.X.o.-.-.X.9 ~ Y u p d n 6 p p u 6 6 < q q q q > > > > > ; < ; ",
": : : : : 3 : > 3 3 3 6 6 a 6 5 e u i u e 3 :.6X&X&X#.*.-. .X.O.=.X.9 u u s p d s p p p q q q q 1 1 1 > 1 : : < > ; : : ",
": : : : : > 2 > 3 3 3 6 6 6 u u u u 6 u e e f q.<X=X&.-.=.g X.O.=.X.9 p p p s p p u q u p q q q 1 > > > : : : ; ; ; ; : ",
": - - : ; - - % # - ; : : > > e 3 u u e u u e g *X<X&.-.*.9  . .o.&.0 u u p p p p q u q q q 1 1 > 1 1 > < - ; ; ; ; ; ; ",
"* - - : = # O # O # # = % # # - : 3 3 u e e : r 6.<X&.-.o.8 j  .&.-.g u u u u p p q u u u q q 1 1 1 > : : : < ; ; ; ; ; ",
"- = - - - = O O @ # # # # # # = = = : 3 6 6 > r 4.=X&.=. .8 g  .=.-.j > q u u u q q q q u q 0 0 > 0 > > ; ; ; ; < $ # ; ",
"= - - - - - : - = # @ # # # # # = # = : 6 6 > g 4.=X#.*. .$ g o.-.-. .> q q u q q q u q 0 q 0 > > > > > > ; ; ; + ; # ; ",
"= = = - - - - - - - # # # # # # # * # : > 6 ; t ;.5. .=.j ; h *.=.-. .> > u > u q > q > 0 0 > > > ; > ; < ; ; ; ; ; + ; ",
"= # - = = = = = O # O # O # # # # # # # = = # h j  .&.*.j ;  .=.=.=...> 0 > 0 > > q > q > > > : ; > ; ; = ; ; ; ; + ; $ ",
"# # - * - - - - # O O O O # # = # # # # # # # j  .j X.*...$  .=.o.O. .: > e > 3 > > > > > > 9 ; ; ; ; ; = ; = # ; + + + ",
"# - # - O - = - - O O @ O O O # # # # # # # : k h  .=.-. .$ j *.*.-.*.> > > > > > > ; > ; > ; ; ; < ; ; ; ; ; # ; + ; + ",
"# # - O - O = - - = % O O # O O O O # # # O t  . .*.=.=.t -  .*.*.o.X.9 > > > > ; > > ; ; ; ; ; ; ; ; ; ; ; ; # + ; + # ",
"O # = O = = - O = - ; # # O O O O = # @ @ @ 8  . . .X.h @ 9  . . .O.=.g ; : > : > ; ; > ; ; ; ; ; ; ; + ; + = # ; + ; + ",
"# - O O % # # # # - - = = = # # = O O O @ + t  .X.*.*.t o &  .j X.-.*. .$ $ ; : : : ; ; ; ; ; ; ; $ # # + ; + ; + + + + ",
"X X O O o o . O # # # = = = = = * = # O o $ j  . .&.&.X.& 9  . .O. .#.>X<Xt.k = ; ; ; ; ; ; = = # ; ; # ; ; ; + + ; # + ",
"  X f #.#.k   X # # # # = = % - = = = # o g j k =XaXaX=X8 g  . .h @ h 6.=X*X;.% = = ; ; = = # = + ; # # # + # + ; + + + ",
"  . & * & @   X # # # # # = = # = = = # @ j : % ;.&X&X4.% & h h ..#.#.;.4.4.4.k = $ ; = = # = = ; ; + # ; + + + + + + + "
};
