/* XPM */
static char *_35d88f501d74ea4bbac11a4fb97b1ef8dB6n80JOsITTxbf[] = {
/* columns rows colors chars-per-pixel */
"64 64 221 2 ",
"   c #010300",
".  c #030B01",
"X  c #0A0C01",
"o  c #041301",
"O  c #0B1403",
"+  c #041C02",
"@  c #0C1A02",
"#  c #071D08",
"$  c #091D08",
"%  c #121401",
"&  c #141C04",
"*  c #1A1D02",
"=  c #121C09",
"-  c #062302",
";  c #0A2404",
":  c #072802",
">  c #0A2C03",
",  c #0B2509",
"<  c #0D2C0B",
"1  c #072008",
"2  c #152204",
"3  c #1C2304",
"4  c #122D02",
"5  c #1D2B02",
"6  c #162209",
"7  c #1A250A",
"8  c #112D0D",
"9  c #1D2E0E",
"0  c #1C2B0C",
"q  c #0C3302",
"w  c #0D3B03",
"e  c #0E320A",
"r  c #133502",
"t  c #1C3404",
"y  c #133C02",
"u  c #1A3B04",
"i  c #12330D",
"p  c #1E320E",
"a  c #153C0C",
"s  c #193E0B",
"d  c #1B2E10",
"f  c #1C2F10",
"g  c #1D2D10",
"h  c #153410",
"j  c #1E3111",
"k  c #1E3613",
"l  c #1D3512",
"z  c #173B11",
"x  c #1E3813",
"c  c #1E3814",
"v  c #1D3C14",
"b  c #222502",
"n  c #242B03",
"m  c #2A2C03",
"M  c #202609",
"N  c #232C0A",
"B  c #233302",
"V  c #2C3304",
"C  c #253B03",
"Z  c #2D3B05",
"A  c #23340C",
"S  c #2B350A",
"D  c #233C0D",
"F  c #2B3C0B",
"G  c #323503",
"H  c #353A04",
"J  c #393D05",
"K  c #323A0A",
"L  c #3A3F09",
"P  c #33370B",
"I  c #213513",
"U  c #213614",
"Y  c #213411",
"T  c #213A15",
"R  c #213C14",
"E  c #2C3C12",
"W  c #2B3D18",
"Q  c #134204",
"!  c #1A4402",
"~  c #1C4804",
"^  c #15420B",
"/  c #1A420D",
"(  c #1C4A0F",
")  c #1D4313",
"_  c #1E4319",
"`  c #1A4516",
"'  c #234302",
"]  c #254A05",
"[  c #294B06",
"{  c #25420D",
"}  c #2B430C",
"|  c #2C4C0B",
" . c #294505",
".. c #324305",
"X. c #324904",
"o. c #33450A",
"O. c #334B0A",
"+. c #3A4E0B",
"@. c #3C400A",
"#. c #2C510C",
"$. c #33510E",
"%. c #3B520D",
"&. c #234315",
"*. c #284517",
"=. c #234B15",
"-. c #234419",
";. c #2B4519",
":. c #234A1A",
">. c #2A4A19",
",. c #294F17",
"<. c #334A1B",
"1. c #394B16",
"2. c #255015",
"3. c #245019",
"4. c #2B5414",
"5. c #3A5416",
"6. c #1D5725",
"7. c #274D21",
"8. c #374621",
"9. c #215525",
"0. c #245F2D",
"q. c #2E5D2E",
"w. c #295824",
"e. c #365927",
"r. c #3B5F36",
"t. c #37682F",
"y. c #286834",
"u. c #3B6936",
"i. c #267438",
"p. c #3B713E",
"a. c #445B1E",
"s. c #414D21",
"d. c #465526",
"f. c #4F5C38",
"g. c #515F3F",
"h. c #434E39",
"j. c #446A2E",
"k. c #486227",
"l. c #446737",
"z. c #586A3A",
"x. c #417134",
"c. c #497139",
"v. c #2A7B42",
"b. c #347D48",
"n. c #486D42",
"m. c #5B6644",
"M. c #4B7445",
"N. c #48774A",
"B. c #517F53",
"V. c #527F45",
"C. c #66784C",
"Z. c #656E54",
"A. c #6B7652",
"S. c #6A7857",
"D. c #717D5B",
"F. c #3B8A53",
"G. c #3C9555",
"H. c #37894C",
"J. c #3F9D60",
"K. c #438553",
"L. c #4A8655",
"P. c #538A5B",
"I. c #578358",
"U. c #54905F",
"Y. c #6B804E",
"T. c #74825D",
"R. c #6E8358",
"E. c #44A45D",
"W. c #588D63",
"Q. c #469C63",
"!. c #569564",
"~. c #778362",
"^. c #7A8767",
"/. c #7B8D65",
"(. c #7D8D69",
"). c #768B63",
"_. c #65966E",
"`. c #649972",
"'. c #739F7D",
"]. c #49A36A",
"[. c #54A86A",
"{. c #4FAD72",
"}. c #5AA873",
"|. c #5BB277",
" X c #63A878",
".X c #62B175",
"XX c #84946D",
"oX c #8B9B79",
"OX c #869572",
"+X c #868F72",
"@X c #5FB483",
"#X c #7CA987",
"$X c #65BA81",
"%X c #67B885",
"&X c #78BA8C",
"*X c #72B18A",
"=X c #7BC495",
"-X c #939C83",
";X c #94A383",
":X c #9BA88C",
">X c #84B08F",
",X c #87B996",
"<X c #92B79A",
"1X c #8CA58D",
"2X c #A6B196",
"3X c #9BBEA2",
"4X c #A8BAA3",
"5X c #96C19F",
"6X c #87C89C",
"7X c #99C4A5",
"8X c #A5C6AD",
"9X c #B4C1AA",
"0X c #A9C8B2",
"qX c #B2C9B4",
"wX c #B3D4BD",
"eX c #BDD9C4",
"rX c #C4D8C8",
"tX c #CCE2D3",
"yX c #D6E8DB",
"uX c #DCEEE1",
"iX c #E6F4E9",
/* pixels */
"W W Y j 9 f 0 0 g g g 9 d 8 0 0 8 0 d d 0 d g g d 6 0 6 6 6 d 6 = 6 6 = 6 6 6 = 6 6 = = @ = O O O O O O X o . . O O . O = O = O ",
";.W W Y f f f g g g g g g 9 d d g g d d f g g g d d d d 0 0 d 7 0 6 6 = = 6 6 6 & = = = = = = O O O O O X O O o o X O O O O = = ",
"<.<.W W I Y Y f j I j j j g 0 g f g f f j I I I g f g h 0 f f j g 0 7 7 6 6 6 6 6 6 6 & = = = = O O O O O O O O O O O O O = O = ",
"<.>.;.W U I Y Y c U c j j l j h j f Y c Y U U U U I g f j j Y f g d 6 0 d 6 0 d 7 7 0 7 * 6 = = = = O = O = O O = O = O = O = = ",
"<.>.;.;.R T U T U R s c c l c c l l c Y Y c U c U U j j j Y Y Y 9 0 0 0 7 7 7 7 7 7 0 0 7 7 7 = = = & = = O @ O = % % = = = = = ",
"<.;.;.;.;.R T T R T T c c c c c c c l c c c c c U c Y Y Y Y Y p A 0 9 0 d 7 0 7 0 0 M 0 7 7 7 * * = 6 & & = % = = = = = = = = = ",
">.;.;.*.;.-.-.-.R R R R c c c c c v R c l c l c c Y l p j j Y Y 9 9 9 0 0 0 0 6 0 M 0 0 7 7 * 7 6 & 6 & & & & & = = = = 6 = = = ",
";.-.*.;.;.*.-.-.-.;.R v v c R v c R c c l l l c l j p p p p p p j N 0 0 0 7 0 7 0 0 N N M M 7 7 7 7 & 7 6 2 & 6 = & = 6 6 6 = g ",
"-.&.*.;.>.>.>.*.-.-.R v v v R v R v v v c c c c c p p p p p j p p p 9 0 0 0 5 0 9 A N N M M M 7 7 * 7 7 6 & 6 & & & & 6 6 7 7 7 ",
";.*.*.>.>.>.>.:.-.-.-.R v v v v v v R v v v c Y s c R l p p l A p N 0 p p 0 N N A S N N N M M 7 7 3 & * 2 & & & 6 & 6 6 3 3 7 7 ",
"W -.*.:.>.>.:.*.-.-.R R -.v v v v _ -.v R v R s Y R R A A A Y Y A p A A N N A N S E A N N N M M M * * & * & & & * 6 2 & 7 7 7 7 ",
"W -.-.*.,.>.*.-.-.-.-.-.v v -._ v &.v v -.v &.R R s R Y s D D A D A A A A A A A A E S A N N m N M 7 3 3 & & & * & 7 3 7 3 7 7 7 ",
"-.-.-.&.*.:.*.-.-.-.-.-._ v _ v v _ -.&.&.v &.v R D D D D D A A D A A F A A A F E F S A S S N N N M 3 3 3 * * 6 * 6 3 7 3 3 M 0 ",
"T -.-.&.-.-.-.-.:.-.-.-.-.c v -.-._ -.-.-.&.&.&.D R R / &.D D D D D D D A F F A F S K E K S S S m N M 3 * 2 * & 2 7 3 7 M 0 M N ",
"T -.R -.-.-.-.-.) -.-.:.-._ -.:.-.-.*.=.=.&.=.{ { &.{ D { D D F F F D D F D F F F S F K K K E S V m M 3 3 * 6 3 * 3 3 n 3 0 N N ",
"T v v R _ -._ _ -.:.:.:.:.:.:.) =.=.-.&.,.&.&.{ &.{ D s D D D D F { F F F F F o.o.F S K K K P V N N n 3 3 3 M 3 * M 3 M N n M A ",
"c c c v _ _ -.-.:.:.:.:.:._ _ 3.=.=.:.=.=.&.{ &.&.{ { s D { &.F F } D Z F Z F o.o.F Z Z Z K Z S V m N b 3 3 3 3 3 3 3 n M N N N ",
"c v z v v _ _ _ :.:.7.:.:.:.:.3.:.,.=.=.=.&.=.{ { =.&.{ D D { F } } } } F F F o.o.o.S S K Z H S P V S m n 3 3 3 3 3 3 3 n N N V ",
"c c c v v v v _ _ :.:.3.:.:.:.3.3.3.=.=.=.=.,.=.&.{ &.&.{ { { } } } } } } Z o.o.o.o.Z S S Z S V m V m n b b n 3 n M b n N m N N ",
"h h h v z v v _ _ :.:.3.` ,.:.3.3.2.2.=.2./ { u u u u C u { {  .} | } } } } o.+.s.o.Z S V V V V A V m m N b b 3 3 5 M n n N n n ",
"h h h h v z v z v _ :.:.( :.=.:.2.2.=.( { x.N.M.N.N.n.n.j.{ | | | | o.*...o.O.+.a...H B V V A m V V G m b b b b b b 3 n n N n 0 ",
"8 h h h h z h v ` _ _ ` -._ ( ( ( 2.=.=.{ `.=X&X|.{.Q.Q.P.} [ | O.O.O.O.O.O.O.+.X.@.H Z V V V V V V m m m N b b b b n M 3 n b M ",
"d 8 h h h h h z z z ) ) ` ) ) ) ( :.) { &.!.6X&X].J.F.H.I.| | | $.$.O.O.X.X.O.%.+...Z Z V V B m V G V V m n b b n n M b b 3 3 5 ",
"8 8 8 8 8 h h h z z ) _ z ) ) / ) ( ( { s W.{.].J.G.F.F.B.| #.| $.$.a.O.%.k.O.%.+.X.H Z V V Z V V G G V m m m n n b n b 3 b 3 3 ",
"8 8 8 8 < h i h i h z ` ) z ) ) ) ) / / u W.@XyXuX}.v.b.P. .! #.[ $.Y.[ X.a.X.X.....H Z V V V V G m G G m m m b b n b b 3 3 3 3 ",
"8 8 8 8 h < i i h i h z z a a / s s s a i P.%X0X,X7X`.W.n.5.m.] $.$.OX%.k.z.+.a.+.J +.B G B V V m G G m m m b b n b b b 3 * 2 * ",
", 8 , 8 h < < h i i h z z z a z s s u a t L.@XtXtX>XuX_.q.:X4X(.XX/.XXC.C.A.oX-XXXXX2Xm.B Z m V G G G G m m b b b b b 3 3 * * * ",
"8 8 8 8 < < h i i i i z ` v ^ ` / s s a i F.@XeX3X0X3X6.B.9XoXC.R.;X:X2XO.T.+XC.4X+XA.m.n Z Z m G H J J m m m b b b 3 3 * * & & ",
", 6 < 8 8 8 < h i i e ` z ^ ^ ^ / s a a u K.%X0X*XeX1X6.N.4Xe.).oXoX:X-X1.^.^.A.-XD.^.K n m m m G G G G m m b b b b b * * * * % ",
", 8 , 8 < < h < i i e z z z ^ ` / s u s u K.].tXtX_.#X6.r.:X/.;X(.C.(.l.R.^.D.d.-XA.m.b B B n G G G H H G m m b b b 3 * * * * % ",
"$ , 8 < 8 < 8 h i i i z z ` ^ ^ ( ^ s s r _.&Xv.v.y.y.6.r.4.' | |  .5.Z 1.<.<.C s.A.S.f.5 m m m m H J H G m m b b b b * * * & % ",
", , , < < 8 8 8 e i i z ^ ^ ^ ` ^ ^ ^ ^ y W. Xb.b.q.q.7.e.*.[ [  .[ '  .C B C B 1.1.s.d.n B G m G H H H G m m b b b b 3 * * % % ",
"1 1 , , < < < i e e e i a ^ ^ ^ ( ^ u / y L.%X`.y.9.9.` 4.[ ~ ] ' ' ' '  .C C Z Z o.s.n B n V V H H H G m m m b b b b * * * % % ",
"1 , , , < < < e < e e e e i a ^ ^ ^ ^ Q y L.W.K.N.b.l.t.M.j.t.j.j.j.j.5.C C B C Z B n B n B V V H H H G m m m b b b * * % % % % ",
"# 1 , , < < < < < < < e i i a ^ ^ ^ ^ / ~ ( 3.2.>.4.4.#.V.6X6X.X}.[.E.I.C C C B B B t n B V V V G G G V m m b b b b * * % % % % ",
"# 1 , , , , , < > < < e e w e a ^ ^ Q ^ ^ Q ~ Q Q ~ ~ ! x.&X.XE.E.H.K.L.C B t B t B B n m n V V G G G G m b b b * * * * % % % % ",
"o # # 1 : , : : : , < : < < e w w ^ ^ ^ Q Q ~ ~ ~ ~ ~ ~ x..X.X[.G.K.b.u.D D 8.5 t t n n n n B V V G G m m b b b b * * % % % X X ",
"o # # 1 1 ; , 1 : , : , > < e w a w Q Q Q Q ~ Q Q ~ ~ ! x.$XuXiX.Xi.i.b.B F z.5 n 5 5 5 n n n n m m m b m b b * * * * % % % X X ",
"o o # # 1 1 1 - : 1 : : ; > e q w w ^ Q Q Q Q ! ! Q ~ ! t.=X7X&X<X5X'.q.A f.Z.@ B 5 5 5 3 5 n n n n b b b b b b * % % % % X X X ",
"o o o + + + 1 1 - - 1 1 - > > e i w ^ w Q Q Q Q Q ~ ! u p..XuXuX#X8XqXq.T.;XZ.@ 5 3 5 3 2 3 3 b b 3 b b b b b * * % % % X X X X ",
"o o o # # # # + + - + - - : > e w w ^ ^ Q Q Q Q Q ! ! y t.$X8X&X5X8X9Xu.~.8.Z.@ 0 5 2 2 2 2 * 2 * * * * b b b * * % % X X X X X ",
"o . o o o o + + + - - + - : > > e w w w Q Q Q Q Q Q Q y t.$XwX<XrX4X4Xr.+XS.S.O 0 5 5 & & 2 * % * * * * * b * * % % X X X X     ",
". o o o o + + + + + + + + - : : e w w w w Q w w y y y y t.].rXeXW.qX1X7.m.Z.h.; 5 2 & & % % % % % % % % % * * % % % X X X X X   ",
". . o o o . o o o + + + + - - : e q w w w w w w y y ! y u. Xv.i.y.6.z :.t @ & 2 2 2 2 @ % % O % X % % % % * * % % % X X   X     ",
"  . o . . . o o o o + + + + - - : q q q w w q w w r y w l.&XH.i.y.6._ v t 2 2 2 2 2 2 @ O O X O X X X % % % % % X X   X         ",
". . . . o . o o o o o o + + + - : : > q q q q q q r y q t.}.N.y.9._ a t 4 2 2 & 2 2 % O O X X X X X X % % % X X X X       X X   ",
"  . . . . . . o o o o o o o + + - : q q q q : w q r y q w.N.u.u.e.>.{ 0 4 2 & ; @ @ @ O X X X X   X X X X X X X X     X         ",
"      . . . . . o . o o o o + + - : : q : q : q q q r r y r y u y r r 4 2 ; @ & & @ O O X X . . X X   X X X   X X   X           ",
"      . . .   . . . o . o o o + + - : : q : : q q q q r y y u u u r 4 4 ; @ @ @ @ O o X X X   X     X   . X   X                 ",
".         . . . . . . . . o o o + - : : : q q : q q q y y y y y r r 4 ; 2 @ o @ @ @ o X   . X     X X                           ",
"          . . . . . . . . . o o + - - : q q : q q q w r y y y Q u r 4 2 ; @ O O O O X X X                                       ",
"                  . .   . . . o o + - - : q q q q w y w y y ! u u r r ; @ @ @ o O O X X X . X .                                 ",
"                .     . . . . . o o - - : q q : w w Q Q w Q y ! u r 4 2 @ + O O o O X X .                                     X ",
"                    .     .   . . o + - : : q w w w w Q Q w ! y y u 4 > @ @ o @ @ o . X X                                   X b ",
"                      .       . . . o - : : q w w w Q Q Q y y Q y r r ; @ o o o O o o X X   X                               * M ",
"                                  . o + : : : w w w Q Q w Q y y y r 4 2 @ o O X o o X X . .                             X % 3 b ",
"                                  . . o - - : q w Q Q w y y w r r r > @ @ o o O O X X X .                           X X % V G b ",
"                                    . . o - : > w w w y w y r r r 4 > @ o O o X o o . X .     .                   X % * V J L L ",
"                                      . o + + : q q w y q r r r 4 2 ; @ o o o o o X X . .                       X * S G J J L @.",
"                                        . o + - : q q q q q > 4 > ; @ + o . o X X X . .                       X * m P P H J J J ",
"                                        . . o + : : q q q > > ; ; - + o o O X o O . X .                       O M m P P J J J J ",
"                                          . o o - - : : : : ; - @ + o o o o o . . X .                         % M G J L H H H G ",
"                                          . . . o + : : ; ; - @ + o o . . o o X o . . .                     X % b G L J G m b M ",
"                                              . o o + - + + + + o o o . . . o . X .     .                   X * b G L J G m * H "
};
